<?xml version="1.0" encoding="UTF-8" standalone="no"?>
<svg width="1095px" height="376px" viewBox="0 0 1095 376" version="1.1" xmlns="http://www.w3.org/2000/svg" xmlns:xlink="http://www.w3.org/1999/xlink">
    <!-- Generator: Sketch 40 (33762) - http://www.bohemiancoding.com/sketch -->
    <title>trans_logo</title>
    <desc>Created with Sketch.</desc>
    <defs></defs>
    <g id="Branding-Files" stroke="none" stroke-width="1" fill="none" fill-rule="evenodd">
        <g id="Gympik-Brand-Logo---Colored" transform="translate(-426.000000, -359.000000)">
            <g id="Logo" transform="translate(426.000000, 359.000000)">
                <rect id="trans_logo" x="0" y="0" width="1095" height="376"></rect>
                <g id="trans_logo" transform="translate(0.000000, 64.000000)">
                    <path d="M476.78,128.08 L476.78,163.18 C467.78,168.58 457.16,171.82 447.8,171.82 C422.06,171.82 401.72,152.2 401.72,127 C401.72,101.98 421.88,82.36 447.62,82.36 C460.76,82.36 474.26,87.76 483.98,96.76 L496.04,81.1 C483.62,70.3 465.62,63.46 447.62,63.46 C409.46,63.46 380.12,91 380.12,127 C380.12,163 409.1,190.9 446.36,190.9 C463.64,190.9 482.54,184.24 495.32,174.52 L495.32,128.08 L476.78,128.08 Z M577.04,148.06 L623.3,64 L601.7,64 L566.42,125.38 L530.42,64 L509,64 L555.98,148.78 L555.98,190 L577.04,190 L577.04,148.06 Z M773.24,190 L773.24,64 L748.22,64 L706.82,147.7 L665.24,64 L640.04,64 L640.04,190 L660.02,190 L660.02,95.86 L699.8,176.86 L713.66,176.86 L753.44,95.86 L753.62,190 L773.24,190 Z M806.54,64 L806.54,190 L827.78,190 L827.78,152.02 L856.76,152.02 C888.44,152.02 906.62,135.46 906.62,107.02 C906.62,79.66 888.44,64 856.76,64 L806.54,64 Z M827.78,83.08 L855.86,83.08 C875.3,83.08 886.28,91 886.28,107.56 C886.28,124.66 875.3,132.94 855.86,132.94 L827.78,132.94 L827.78,83.08 Z M948.92,190 L948.92,64 L927.68,64 L927.68,190 L948.92,190 Z M1066.1,190 L1091.66,190 L1039.64,117.82 L1088.42,64 L1063.4,64 L1003.28,129.16 L1003.28,64 L982.04,64 L982.04,190 L1003.28,190 L1003.28,157.96 L1024.7,134.38 L1066.1,190 Z" id="GYMPIK" fill="#FFFFFF"></path>
                    <g id="Group">
                        <g id="Group-4">
                            <path d="M138.839104,8.08708758 L3.2758978,203.645663 C-2.03108692,211.300369 -0.114727805,221.796382 7.55632846,227.092055 L7.55632846,227.092055 C15.2273847,232.385859 25.7476904,230.473584 31.0528019,222.818878 L166.617881,27.2621725 C171.922993,19.6074667 170.006633,9.10958431 162.335577,3.81391111 L162.335577,3.81391111 C154.664521,-1.47989281 144.146088,0.432381699 138.839104,8.08708758" id="Fill-3" fill="#BC4B24"></path>
                            <path d="M83.388513,88.1104484 L138.923588,8.14634379 C144.230573,0.491637908 154.750879,-1.4206366 162.421935,3.87316732 L162.421935,3.87316732 C170.091118,9.16884052 172.009351,19.6667229 166.702366,27.3195595 L148.123236,54.0708405 C129.326807,81.1361608 105.749782,104.51152 78.7521603,123.447337 C59.1483499,137.195899 35.4102241,157.372919 3.27421185,203.645102" id="Fill-6" fill="#E36626"></path>
                        </g>
                        <g id="Group-3" transform="translate(173.000000, 114.000000)">
                            <path d="M105.86782,116.741452 L18.2416908,116.573217 C8.50441348,116.554524 0.627297096,108.66055 0.653522929,98.9440275 L0.653522929,98.9440275 C0.677875489,89.2349817 8.5812177,81.3840013 18.3110019,81.4026941 L82.8153123,81.5316745 L45.2917646,27.7730209 C39.4565167,19.4135961 42.0022958,7.86704706 50.8123025,2.72091634 L50.8123025,2.72091634 C58.7044051,-1.88873072 68.821957,0.34319085 74.0334047,7.84274641 L124.748547,80.8400405 C135.296951,96.0242105 124.383258,116.776969 105.86782,116.741452" id="Fill-7" fill="#BC4B24"></path>
                            <path d="M124.747797,81.1024876 C135.296202,96.2866575 124.382509,117.039416 105.867071,117.003899 L18.2409414,116.837533 C8.50366417,116.818841 0.62842106,108.922997 0.65277362,99.2064745 L0.65277362,99.2064745 C0.677126179,89.4974288 8.58234167,81.6464484 18.3102526,81.6670105 L78.9649853,81.7866444 C84.1108685,81.7959908 89.2024267,80.4445007 93.5390556,77.6779647 C99.8819607,73.6347098 106.236106,65.7818601 103.769004,50.7603176 L124.747797,81.1024876 Z" id="Fill-11" fill="#E36626"></path>
                        </g>
                        <g id="Group-2" transform="translate(82.000000, 59.000000)">
                            <path d="M3.19022774,143.779999 L98.1895626,7.7711098 C105.062604,-2.06878562 119.638548,-2.12299477 126.58652,7.66456078 L126.58652,7.66456078 C130.816373,13.6219595 130.846345,21.5850967 126.661451,27.5742732 L31.6621164,163.583162 C28.4569449,168.174116 23.2248912,170.935044 17.6181826,170.996731 L17.6181826,170.996731 C3.50868429,171.151881 -4.87796257,155.332156 3.19022774,143.779999" id="Fill-12" fill="#BC4B24"></path>
                            <path d="M3.40902612,143.312118 C20.5195091,118.871268 40.7471197,105.356366 56.5968895,97.9633595 C76.817007,88.5328366 94.2422,74.0384314 107.025421,55.7792941 L126.736008,27.6260523 C130.919028,21.6368758 130.889056,13.6718693 126.659203,7.71447059 L126.659203,7.71447059 C119.711231,-2.07308497 105.135287,-2.01700654 98.2622456,7.82288889 L3.40902612,143.312118 Z" id="Fill-13" fill="#E36626"></path>
                        </g>
                    </g>
                </g>
            </g>
        </g>
    </g>
</svg>